<svg xmlns="http://www.w3.org/2000/svg" width="35" height="35" viewBox="0 0 35 30.227">
    <path stroke="#fff" fill="none"
          d="M14.318 26.25h6.364M1.591 1.591h3.713c.778 0 1.442.564 1.569 1.331l2.672 16.169-.723 3.182M7.954 6.364h24.659a.796.796 0 0 1 .764 1.016l-2.614 9.058a1.593 1.593 0 0 1-1.408 1.146L9.562 19.091m15.893 10.341a2.386 2.386 0 1 0-.001-4.775 2.386 2.386 0 0 0 .001 4.775Zm-1.125-4.773h2.25l1.26 1.262v2.25l-1.26 1.261h-2.25l-1.262-1.261v-2.25l1.262-1.262ZM9.545 29.432a2.387 2.387 0 1 0 0-4.774 2.387 2.387 0 0 0 0 4.774ZM8.42 24.659h2.25l1.262 1.262v2.25l-1.262 1.261H8.42l-1.26-1.261v-2.25l1.26-1.262Z"/>
</svg>
